<?xml version="1.0" encoding="utf-8"?>
<!-- Generator: Adobe Illustrator 22.1.0, SVG Export Plug-In . SVG Version: 6.00 Build 0)  -->
<svg version="1.1" id="Layer_1" xmlns="http://www.w3.org/2000/svg" xmlns:xlink="http://www.w3.org/1999/xlink" x="0px" y="0px"
	 viewBox="0 0 20 20" style="enable-background:new 0 0 20 20;" xml:space="preserve">
<g>
	<path class="oc-icon-indicator oc-icon-status-error" d="M20,5.9v8.3L14.1,20H5.9L0,14.1V5.9L5.9,0h8.3L20,5.9z M5.8,9.8c0,0.7,0.6,1.3,1.3,1.3c0.7,0,1.3-0.6,1.3-1.3v-4
		c0-0.7-0.6-1.3-1.3-1.3S5.8,5.1,5.8,5.8L5.8,9.8z M12.1,9.8c0.1,0.7,0.7,1.2,1.4,1.2c0.6-0.1,1.1-0.6,1.2-1.2v-4
		c0.1-0.7-0.5-1.3-1.2-1.4c-0.7-0.1-1.3,0.5-1.4,1.2c0,0.1,0,0.2,0,0.2V9.8z M15,14c0-0.9-0.7-1.6-1.6-1.6c-0.9,0-1.6,0.7-1.6,1.6
		c0,0.9,0.7,1.6,1.6,1.6c0,0,0,0,0,0C14.3,15.6,15,14.9,15,14z M8.6,14c0-0.9-0.7-1.6-1.6-1.6S5.5,13.1,5.5,14s0.7,1.6,1.6,1.6l0,0
		C7.9,15.6,8.7,14.9,8.6,14C8.7,14,8.7,14,8.6,14L8.6,14z"/>
</g>
</svg>
