<?xml version="1.0" encoding="utf-8"?>
<!-- Generator: Adobe Illustrator 22.1.0, SVG Export Plug-In . SVG Version: 6.00 Build 0)  -->
<svg version="1.1" id="Layer_1" xmlns="http://www.w3.org/2000/svg" xmlns:xlink="http://www.w3.org/1999/xlink" x="0px" y="0px"
	 viewBox="0 0 13 13" style="enable-background:new 0 0 13 13;" xml:space="preserve">
<path class="oc-icon-indicator" d="M12.1,5H8V0.9c0-0.4-0.3-0.7-0.7-0.7H5.7C5.3,0.2,5,0.5,5,0.9V5H0.9C0.5,5,0.2,5.3,0.2,5.7v1.6C0.2,7.7,0.5,8,0.9,8H5v4.1
	c0,0.4,0.3,0.7,0.7,0.7h1.6c0.4,0,0.7-0.3,0.7-0.7V8h4.1c0.4,0,0.7-0.3,0.7-0.7V5.7C12.8,5.3,12.5,5,12.1,5z"/>
</svg>
