<svg id="Layer_1" data-name="Layer 1" xmlns="http://www.w3.org/2000/svg" viewBox="0 0 20 20"><title>Average</title><path class="oc-icon-indicator"  d="M17.55,1.18V2.57a1.07,1.07,0,0,1-1.07,1.07H3.59A1.07,1.07,0,0,1,2.52,2.57V1.18A1.07,1.07,0,0,1,3.59.11H16.48A1.07,1.07,0,0,1,17.55,1.18Zm-5,11.43,3.86-4.23a1,1,0,0,0-.07-1.46L15.13,5.77a1,1,0,0,0-1.46.06L10,9.82l-3.64-4A1,1,0,0,0,4.93,5.8L3.67,7a1,1,0,0,0-.06,1.46l3.86,4.19L3.34,17.14A1,1,0,0,0,3.4,18.6l1.26,1.15a1,1,0,0,0,1.46-.06L10,15.4,14,19.66a1,1,0,0,0,1.46.06l1.26-1.16a1,1,0,0,0,.06-1.46Z"/></svg>
