<svg id="Layer_1" data-name="Layer 1" xmlns="http://www.w3.org/2000/svg" viewBox="0 0 35.5 10.4"><path class="oc-icon-indicator"  d="M34.5,1.5H31.1a.9.9,0,0,0-.5.1A7.43,7.43,0,0,0,26.3-.1a6.23,6.23,0,0,0-4.8,2.2A5.85,5.85,0,0,0,17.7.8,5.11,5.11,0,0,0,14,2.1,6,6,0,0,0,9.3.1,6.82,6.82,0,0,0,5,1.8c-.2-.1-.3-.2-.5-.1H1.2A1.13,1.13,0,0,0,0,2.8,1.08,1.08,0,0,0,1.1,4H3.6a2.66,2.66,0,0,0-.3,1.2C3.3,8,6,10.4,9.2,10.4S15.1,8,15.1,5.2a2.77,2.77,0,0,0-.1-.9,2.88,2.88,0,0,1,2.6-1.1,4.19,4.19,0,0,1,2.8,1,1.73,1.73,0,0,0-.1,1c0,2.8,2.7,5.2,5.9,5.2S32.1,8,32.1,5.2a5.85,5.85,0,0,0-.2-1.3h2.4a1.22,1.22,0,0,0,1.2-1.2A1.19,1.19,0,0,0,34.5,1.5ZM9.3,8.1c-2,0-3.7-1.3-3.7-2.8S7.3,2.5,9.3,2.5,13,3.7,13,5.2,11.3,8.1,9.3,8.1Zm17.1,0h0c-2,0-3.7-1.3-3.7-2.8s1.7-2.8,3.7-2.8S30,3.7,30,5.2,28.4,8.1,26.4,8.1Z"/></svg>