<svg id="Layer_1" data-name="Layer 1" xmlns="http://www.w3.org/2000/svg" viewBox="0 0 30 30"><defs>
<style>.cls-1{fill:#d12515;}</style></defs><title>CriticalError</title>
<path class="oc-icon-indicator oc-icon-status-error" d="M26.25,11.4v9.32l-6.59,6.59H10.34L3.75,20.72V11.4l6.59-6.59h9.32ZM9.36,15.52a1.64,1.64,0,0,0,3.27,0V10.46a1.64,1.64,0,0,0-3.27,0Zm8,0a1.64,1.64,0,0,0,3.27,0V10.46a1.64,1.64,0,0,0-3.27,0ZM21,20.87a2,2,0,1,0-2,2A2,2,0,0,0,21,20.87Zm-8,0a2,2,0,1,0-2,2A2,2,0,0,0,13,20.87Z"/></svg>