<?xml version="1.0" encoding="utf-8"?>
<!-- Generator: Adobe Illustrator 22.1.0, SVG Export Plug-In . SVG Version: 6.00 Build 0)  -->
<svg version="1.1" id="Layer_1" xmlns="http://www.w3.org/2000/svg" xmlns:xlink="http://www.w3.org/1999/xlink" x="0px" y="0px"
	 viewBox="0 0 18 17" style="enable-background:new 0 0 18 17;" xml:space="preserve">
<g>
	<path class="oc-icon-indicator" d="M3.7,13.6c-0.6,0-1-0.4-1-1c0-0.2,0-0.4,0.1-0.5l2.9-4.9c0.3-0.5,0.8-0.6,1.3-0.4l3.3,1.7l3-4.7c0.3-0.5,0.9-0.6,1.4-0.3
		c0.5,0.3,0.6,0.9,0.3,1.4l-3.5,5.5c-0.3,0.4-0.8,0.6-1.3,0.4L7,9l-2.4,4.1C4.4,13.4,4.1,13.6,3.7,13.6z"/>
	<path class="oc-icon-indicator" d="M16.7,16.9H1.3c-0.6,0-1-0.4-1-1V1.1c0-0.6,0.4-1,1-1s1,0.4,1,1v13.7h14.4c0.6,0,1,0.4,1,1S17.3,16.9,16.7,16.9z"/>
</g>
</svg>
